<svg height="16" viewBox="0 0 16 16" width="16" xmlns="http://www.w3.org/2000/svg"><g fill="#2e3436"><path d="m2 4c.179688 0 .359375.046875.515625.140625l5 3c.648437.386719.648437 1.328125 0 1.71875l-5 3c-.15625.089844-.335937.140625-.515625.136719-1 .003906-1-.996094-1-.996094v-6s-.003906-1 1-1zm0 0"/><path d="m9 4c.179688 0 .359375.046875.515625.140625l5 3c.648437.386719.648437 1.328125 0 1.71875l-5 3c-.15625.089844-.335937.140625-.515625.136719-1 .003906-1-.996094-1-.996094v-6s-.003906-1 1-1zm0 0"/></g></svg>